<?xml version="1.0" standalone="no"?>
<!DOCTYPE svg PUBLIC "-//W3C//DTD SVG 20010904//EN"
 "http://www.w3.org/TR/2001/REC-SVG-20010904/DTD/svg10.dtd">
<svg version="1.0" xmlns="http://www.w3.org/2000/svg"
 width="550.000000pt" height="578.000000pt" viewBox="0 0 550.000000 578.000000"
 preserveAspectRatio="xMidYMid meet">

<g transform="translate(0.000000,578.000000) scale(0.100000,-0.100000)"
fill="#000000" stroke="none">
<path d="M0 4003 l1 -1778 30 35 c16 19 42 52 56 72 25 37 25 40 13 100 -15
74 -15 301 0 426 6 48 22 137 37 197 70 298 189 523 416 788 27 32 48 59 46
61 -2 2 -29 11 -59 21 -64 20 -240 106 -240 116 0 4 9 10 20 14 54 17 431 302
565 426 396 369 680 588 1050 811 287 172 461 264 576 302 266 89 675 134 949
106 157 -17 359 -71 487 -131 34 -16 66 -29 71 -29 5 0 14 44 21 97 6 53 14
99 16 102 3 2 44 -34 93 -80 48 -46 134 -125 192 -174 154 -132 316 -292 365
-360 122 -171 219 -453 232 -675 6 -104 6 -105 42 -141 61 -60 185 -201 232
-264 173 -231 239 -441 239 -755 0 -186 -27 -302 -111 -475 l-38 -80 1 -185
c1 -153 -2 -203 -20 -287 -19 -92 -19 -107 -7 -165 15 -73 40 -139 91 -240 38
-76 120 -208 129 -208 3 0 5 929 5 2065 l0 2065 -2750 0 -2750 0 0 -1777z"/>
<path d="M3021 5499 c-135 -11 -305 -47 -451 -96 -119 -40 -171 -65 -279 -132
-42 -26 -112 -67 -156 -91 -288 -157 -628 -402 -906 -653 -161 -144 -357 -316
-436 -381 -40 -33 -70 -63 -67 -67 11 -19 143 -50 215 -52 l76 -1 -155 -151
c-189 -182 -287 -298 -371 -439 -81 -136 -125 -245 -168 -415 -30 -121 -34
-152 -36 -286 l-2 -150 40 2 c22 2 59 10 83 19 24 9 45 14 48 12 2 -3 -12 -45
-33 -94 -59 -143 -164 -294 -344 -495 l-79 -87 0 -412 0 -411 125 111 c69 61
212 202 319 313 107 111 213 213 235 227 22 14 41 27 41 30 0 3 -79 4 -176 2
l-177 -3 94 62 c132 88 320 278 429 437 112 162 268 427 341 581 33 68 58 125
56 127 -2 2 -43 -19 -93 -47 -49 -28 -125 -69 -169 -91 -72 -37 -174 -102
-248 -159 -17 -13 -27 -16 -27 -8 0 37 88 298 131 388 73 155 185 303 282 377
33 24 53 44 45 44 -29 0 -312 -103 -338 -123 -22 -17 -5 5 106 138 134 162
272 303 425 436 207 179 278 230 353 254 83 26 -151 -1 -308 -36 -49 -11 -91
-18 -93 -15 -2 2 37 47 88 100 212 222 459 383 677 443 l87 23 -181 -2 -182
-3 78 57 c192 141 381 226 625 280 81 18 443 18 505 0 25 -7 53 -16 64 -19 46
-13 -3 22 -88 63 -90 44 -152 66 -231 79 l-40 7 70 24 c140 49 213 57 420 51
321 -10 475 -54 657 -188 164 -122 291 -307 336 -488 l18 -75 19 98 c10 54 23
146 29 205 l11 106 41 -60 c90 -131 135 -262 156 -446 11 -96 10 -122 -6 -217
-10 -59 -26 -132 -36 -162 -10 -30 -17 -56 -15 -58 1 -2 25 20 53 48 l50 51
69 -59 c88 -76 169 -164 217 -236 21 -32 36 -59 34 -60 -1 -1 -37 0 -78 4 -41
4 -76 6 -78 4 -2 -1 21 -15 50 -32 84 -47 161 -137 196 -229 44 -114 56 -203
41 -289 l-13 -69 -12 41 c-28 95 -68 139 -157 172 -89 34 -134 36 -232 13 -94
-23 -245 -93 -343 -160 -56 -38 -168 -148 -208 -205 -16 -22 -26 -27 -42 -22
-36 12 -130 122 -143 169 -17 65 -6 156 27 217 39 72 246 270 372 355 56 38
100 70 98 72 -6 6 -221 -103 -283 -143 -65 -42 -196 -165 -225 -213 l-23 -36
-6 52 c-6 50 -44 143 -57 143 -4 0 -5 -39 -3 -86 2 -47 0 -106 -4 -132 l-7
-46 -24 50 c-39 83 -143 195 -228 248 -65 41 -372 186 -393 186 -4 0 37 -25
92 -56 252 -142 394 -296 425 -462 11 -62 0 -120 -36 -193 -25 -51 -71 -109
-85 -109 -5 0 -96 52 -202 115 -354 213 -545 299 -689 311 -93 8 -270 -12
-326 -36 -60 -27 -266 -229 -250 -246 3 -2 35 16 71 41 57 39 165 91 172 83 1
-2 -8 -25 -21 -53 -13 -27 -24 -42 -24 -32 0 32 -24 13 -50 -38 -55 -109 -16
-319 86 -473 58 -86 57 -92 -11 -86 -71 7 -71 -4 -2 -71 71 -69 159 -110 273
-130 137 -23 226 -7 297 51 l29 24 -54 1 -53 2 65 7 c36 4 66 6 68 5 2 -2 -31
-32 -74 -67 -266 -218 -398 -363 -499 -548 l-46 -85 6 95 c8 120 37 205 98
290 26 35 47 68 47 72 0 18 -160 -119 -246 -210 l-91 -97 -8 251 c-4 139 -4
267 0 285 l8 33 -39 -34 c-22 -18 -47 -44 -58 -57 -10 -13 -20 -22 -22 -20 -2
2 8 66 22 143 22 120 25 154 19 251 -6 88 -4 128 9 187 10 42 21 78 27 81 5 4
9 11 9 16 0 16 -41 -10 -89 -55 l-43 -41 6 135 c12 228 58 353 172 460 79 73
174 120 320 158 l108 29 -121 7 c-68 3 -134 4 -148 0 -49 -12 -24 8 59 46 121
57 199 73 326 67 82 -4 125 -12 194 -36 49 -17 100 -38 113 -47 43 -27 36 -8
-9 28 -156 125 -378 188 -613 175 -253 -15 -455 -96 -677 -274 -64 -51 -91
-85 -50 -64 31 16 146 60 176 67 l29 7 -26 -35 c-81 -106 -206 -435 -251 -663
-30 -150 -76 -438 -71 -444 2 -2 16 6 32 17 15 11 46 27 68 37 74 31 248 95
251 92 2 -1 -28 -50 -66 -107 -94 -146 -177 -299 -205 -384 -23 -70 -68 -259
-81 -345 l-7 -44 139 125 c76 70 140 126 141 125 1 -1 -11 -51 -27 -112 -58
-227 -80 -501 -63 -780 l8 -130 57 80 c31 44 101 151 155 237 54 87 101 158
105 158 4 0 9 -21 13 -48 38 -303 94 -537 182 -757 113 -284 209 -441 370
-607 l106 -108 108 0 108 0 -40 71 c-87 153 -169 406 -189 583 -13 111 -42
217 -65 236 -14 11 -14 10 -4 -16 15 -39 24 -286 14 -399 l-7 -90 -25 30 c-72
89 -166 304 -210 485 -21 84 -27 130 -27 230 0 143 17 224 85 395 142 354 337
577 667 763 64 36 74 39 78 24 25 -78 64 -131 115 -158 51 -26 52 -15 2 40
-70 77 -90 156 -57 234 50 120 191 166 335 107 43 -17 66 -22 79 -15 21 11 74
79 67 87 -3 3 -37 8 -76 11 l-71 7 61 50 c33 28 81 72 106 98 l44 48 72 -64
c40 -34 94 -80 122 -102 l49 -40 -39 -7 c-22 -4 -71 -7 -110 -7 -68 -1 -69 -1
-45 -18 14 -9 42 -31 64 -49 58 -49 89 -53 137 -14 79 63 138 74 219 39 50
-22 103 -84 117 -137 10 -40 -3 -115 -29 -170 -14 -28 -23 -52 -20 -52 4 0 20
14 37 30 l31 30 100 -102 c234 -240 366 -530 410 -898 18 -150 17 -270 -1
-411 -15 -118 -43 -267 -52 -283 -3 -4 -18 21 -34 57 -15 36 -48 95 -72 131
l-45 65 -5 -292 c-5 -292 -9 -326 -52 -499 l-7 -28 162 0 162 0 -21 34 -21 34
25 119 c14 66 38 167 54 224 28 102 77 335 102 494 8 45 13 160 13 265 0 182
-14 282 -70 520 -3 14 17 -12 44 -58 89 -146 259 -368 424 -553 l57 -64 1 151
0 151 -96 129 c-159 214 -233 349 -298 551 -40 126 -45 190 -20 288 34 140 37
273 8 480 -4 36 0 46 37 95 22 30 51 75 64 100 70 139 84 435 30 645 -46 180
-242 459 -424 605 l-80 65 7 40 c13 74 5 246 -16 325 -72 271 -175 421 -451
657 l-76 65 -9 -81 -8 -81 -40 36 c-113 101 -305 193 -507 241 -90 21 -135 26
-296 28 -104 2 -241 -1 -304 -6z m1832 -2290 c72 -37 127 -88 127 -118 0 -42
-45 -127 -96 -181 l-47 -50 21 -23 c40 -42 56 -104 56 -217 0 -122 -11 -164
-85 -312 -66 -132 -102 -242 -96 -290 3 -21 4 -38 2 -38 -1 0 -21 32 -44 70
-45 75 -158 221 -271 349 l-69 78 64 5 c167 14 314 144 381 338 27 79 25 252
-5 334 -11 33 -21 63 -21 68 0 15 40 8 83 -13z m-2626 -126 c-3 -10 -5 -2 -5
17 0 19 2 27 5 18 2 -10 2 -26 0 -35z m0 -115 c-3 -7 -5 -2 -5 12 0 14 2 19 5
13 2 -7 2 -19 0 -25z"/>
<path d="M4790 3199 c0 -5 4 -7 10 -4 5 3 16 -9 25 -27 10 -23 13 -25 9 -8
-10 40 -44 70 -44 39z"/>
<path d="M4841 3110 c0 -8 4 -24 9 -35 5 -13 9 -14 9 -5 0 8 -4 24 -9 35 -5
13 -9 14 -9 5z"/>
<path d="M4856 2994 c-4 -31 -5 -59 -2 -61 2 -3 8 21 11 52 4 31 5 58 3 61 -3
2 -8 -21 -12 -52z"/>
<path d="M4671 2520 c-62 -56 -145 -75 -251 -56 l-35 6 35 -14 c80 -33 183 -9
257 59 26 24 46 44 43 44 -3 0 -25 -18 -49 -39z"/>
<path d="M2130 4326 c127 -15 257 -38 333 -61 28 -8 52 -13 55 -11 16 16 -274
73 -405 80 l-98 5 115 -13z"/>
<path d="M1928 4323 c18 -2 45 -2 60 0 15 2 0 4 -33 4 -33 0 -45 -2 -27 -4z"/>
<path d="M1843 4313 c9 -2 25 -2 35 0 9 3 1 5 -18 5 -19 0 -27 -2 -17 -5z"/>
<path d="M1735 4295 c-27 -7 -41 -13 -30 -13 11 0 43 6 70 13 28 7 41 13 30
13 -11 0 -42 -6 -70 -13z"/>
<path d="M1648 4273 c6 -2 18 -2 25 0 6 3 1 5 -13 5 -14 0 -19 -2 -12 -5z"/>
<path d="M2791 4249 c24 -17 60 -46 79 -63 l35 -31 -34 38 c-19 20 -31 37 -25
37 19 0 159 -83 228 -134 134 -102 210 -171 277 -255 38 -46 67 -87 66 -90 -1
-4 13 -24 31 -45 47 -54 39 -34 -20 48 -107 149 -200 239 -378 370 -56 42
-273 156 -295 156 -4 0 12 -14 36 -31z"/>
<path d="M1541 4249 c-18 -6 -31 -12 -29 -14 2 -3 24 1 49 9 49 16 33 20 -20
5z"/>
<path d="M2575 4222 c28 -15 77 -45 110 -66 33 -21 53 -31 45 -22 -20 20 -180
116 -194 116 -6 0 12 -13 39 -28z"/>
<path d="M1460 4220 c-18 -12 -2 -12 25 0 13 6 15 9 5 9 -8 0 -22 -4 -30 -9z"/>
<path d="M1400 4200 c-18 -12 -2 -12 25 0 13 6 15 9 5 9 -8 0 -22 -4 -30 -9z"/>
<path d="M2398 4203 c12 -2 30 -2 40 0 9 3 -1 5 -23 4 -22 0 -30 -2 -17 -4z"/>
<path d="M2313 4193 c9 -2 25 -2 35 0 9 3 1 5 -18 5 -19 0 -27 -2 -17 -5z"/>
<path d="M2528 4180 c23 -10 68 -43 99 -72 31 -29 51 -44 45 -32 -19 36 -143
124 -174 124 -7 0 6 -9 30 -20z"/>
<path d="M2245 4180 c-13 -5 -14 -9 -5 -9 8 0 24 4 35 9 13 5 14 9 5 9 -8 0
-24 -4 -35 -9z"/>
<path d="M2180 4155 c-14 -8 -20 -14 -15 -14 6 0 21 6 35 14 14 8 21 14 15 14
-5 0 -21 -6 -35 -14z"/>
<path d="M2914 4133 c5 -7 26 -46 47 -86 21 -39 39 -68 39 -64 0 14 -57 122
-76 143 -11 11 -15 14 -10 7z"/>
<path d="M2223 4123 c26 -2 67 -2 90 0 23 2 2 3 -48 3 -49 0 -68 -1 -42 -3z"/>
<path d="M2393 4113 c9 -2 23 -2 30 0 6 3 -1 5 -18 5 -16 0 -22 -2 -12 -5z"/>
<path d="M2750 4116 c0 -2 23 -21 51 -41 28 -20 48 -32 45 -26 -8 12 -96 74
-96 67z"/>
<path d="M2458 4103 c6 -2 18 -2 25 0 6 3 1 5 -13 5 -14 0 -19 -2 -12 -5z"/>
<path d="M2508 4093 c7 -3 16 -2 19 1 4 3 -2 6 -13 5 -11 0 -14 -3 -6 -6z"/>
<path d="M2890 4005 c19 -19 36 -35 39 -35 3 0 -10 16 -29 35 -19 19 -36 35
-39 35 -3 0 10 -16 29 -35z"/>
<path d="M2948 3954 c12 -22 40 -49 46 -43 2 2 -10 18 -26 34 -21 21 -27 24
-20 9z"/>
<path d="M3001 3965 c0 -5 6 -21 14 -35 8 -14 14 -20 14 -15 0 6 -6 21 -14 35
-8 14 -14 21 -14 15z"/>
<path d="M2831 3876 c2 -2 36 -6 74 -9 41 -3 60 -2 45 3 -25 8 -127 13 -119 6z"/>
<path d="M2988 3853 c7 -3 16 -2 19 1 4 3 -2 6 -13 5 -11 0 -14 -3 -6 -6z"/>
<path d="M3073 3843 c9 -2 23 -2 30 0 6 3 -1 5 -18 5 -16 0 -22 -2 -12 -5z"/>
<path d="M3128 3833 c7 -3 16 -2 19 1 4 3 -2 6 -13 5 -11 0 -14 -3 -6 -6z"/>
<path d="M3198 3823 c7 -3 16 -2 19 1 4 3 -2 6 -13 5 -11 0 -14 -3 -6 -6z"/>
<path d="M3255 3810 c27 -12 43 -12 25 0 -8 5 -22 9 -30 9 -10 0 -8 -3 5 -9z"/>
<path d="M3310 3790 c8 -5 20 -10 25 -10 6 0 3 5 -5 10 -8 5 -19 10 -25 10 -5
0 -3 -5 5 -10z"/>
<path d="M2240 3205 c-6 -8 -10 -19 -8 -26 2 -6 9 0 16 15 13 29 10 33 -8 11z"/>
<path d="M4087 2410 c-60 -18 -237 -160 -237 -190 0 -33 27 -45 73 -31 23 6
86 18 139 26 54 7 102 16 107 19 5 4 17 26 27 51 14 38 15 49 4 75 -22 53 -55
67 -113 50z"/>
<path d="M3334 2356 c-27 -27 -34 -42 -34 -74 0 -61 17 -72 109 -72 45 0 108
-8 152 -20 90 -24 133 -25 153 -4 38 37 -3 89 -96 120 -28 9 -85 32 -125 50
-94 43 -116 43 -159 0z"/>
<path d="M1064 1966 c-5 -6 -35 -33 -65 -60 -30 -27 -36 -35 -14 -18 74 57
100 80 95 85 -3 3 -10 0 -16 -7z"/>
<path d="M1087 1928 c-9 -29 -15 -54 -13 -56 2 -2 12 20 21 48 9 28 15 53 13
55 -2 3 -12 -19 -21 -47z"/>
<path d="M881 1819 c-66 -48 -76 -58 -36 -35 31 18 104 76 95 75 -3 0 -30 -18
-59 -40z"/>
<path d="M780 1749 c-22 -18 -22 -19 -3 -10 12 6 25 16 28 21 9 15 3 12 -25
-11z"/>
<path d="M1016 1724 c-9 -26 -14 -49 -12 -51 2 -2 11 17 20 43 9 26 14 49 12
51 -2 2 -11 -17 -20 -43z"/>
<path d="M3700 1694 c-291 -55 -554 -125 -729 -195 -82 -34 -115 -53 -163 -97
-32 -30 -64 -64 -70 -75 -12 -24 -20 -187 -8 -187 12 0 67 58 114 119 33 44
55 61 111 87 143 66 347 126 585 173 275 54 434 54 645 0 90 -22 225 -82 225
-99 0 -20 53 -79 113 -126 l57 -45 0 51 c0 29 -7 79 -16 112 -8 33 -13 66 -10
74 3 7 -9 25 -27 40 -94 80 -327 143 -622 168 -38 4 -83 8 -100 10 -16 2 -64
-2 -105 -10z"/>
<path d="M664 1674 c-18 -14 -18 -15 4 -4 12 6 22 13 22 15 0 8 -5 6 -26 -11z"/>
<path d="M614 1644 c-18 -14 -18 -15 4 -4 12 6 22 13 22 15 0 8 -5 6 -26 -11z"/>
<path d="M981 1629 c-6 -18 -9 -34 -7 -36 2 -2 9 10 15 28 6 18 9 34 7 36 -2
2 -9 -10 -15 -28z"/>
<path d="M564 1614 c-18 -14 -18 -15 4 -4 12 6 22 13 22 15 0 8 -5 6 -26 -11z"/>
<path d="M520 1590 c-9 -6 -10 -10 -3 -10 6 0 15 5 18 10 8 12 4 12 -15 0z"/>
<path d="M941 1529 c-12 -29 -20 -54 -18 -56 2 -2 14 20 26 48 12 29 20 54 18
56 -2 2 -14 -20 -26 -48z"/>
<path d="M906 1445 c-9 -26 -7 -32 5 -12 6 10 9 21 6 23 -2 3 -7 -2 -11 -11z"/>
<path d="M1028 1342 c-137 -190 -379 -474 -392 -461 -4 4 22 56 57 115 65 109
167 307 167 321 0 5 -33 -55 -74 -132 -40 -77 -98 -183 -129 -234 -31 -52 -57
-99 -57 -104 0 -47 357 365 475 546 35 54 9 25 -47 -51z"/>
<path d="M877 1375 c-24 -50 -20 -58 4 -12 11 22 19 41 17 43 -3 2 -12 -12
-21 -31z"/>
<path d="M1081 1344 c-12 -31 -20 -58 -18 -61 2 -2 14 22 25 54 12 31 20 59
18 61 -2 2 -14 -22 -25 -54z"/>
<path d="M3585 1305 c-38 -7 -101 -25 -140 -40 -38 -15 -92 -35 -120 -45 -64
-24 -55 -24 85 -1 142 24 304 34 350 23 33 -8 32 -9 -37 -19 -94 -15 -194 -63
-256 -125 -27 -27 -47 -51 -44 -54 3 -3 22 3 44 14 81 41 278 77 368 67 63 -7
137 -35 167 -62 17 -15 18 -15 18 3 0 11 -13 40 -28 65 l-29 44 108 -3 c99 -4
112 -2 166 22 44 21 54 29 43 36 -8 5 -26 10 -40 10 -37 0 -70 11 -65 21 8 12
-86 37 -185 49 -113 14 -319 11 -405 -5z"/>
<path d="M1032 1198 c-21 -73 -36 -142 -27 -123 10 22 55 188 52 191 -2 3 -13
-28 -25 -68z"/>
<path d="M1277 1078 c-4 -20 -21 -70 -38 -110 -42 -102 -115 -325 -144 -438
-13 -52 -40 -185 -60 -295 -19 -110 -37 -208 -39 -217 -4 -17 12 -18 225 -18
l229 0 -19 48 c-31 78 -88 317 -111 467 -15 96 -24 212 -29 370 -4 151 -9 217
-14 193z"/>
<path d="M980 995 c-7 -36 -10 -68 -8 -70 3 -3 10 25 17 61 6 37 10 68 8 71
-3 2 -10 -26 -17 -62z"/>
<path d="M3725 984 c95 -15 143 -39 199 -98 20 -21 25 -24 18 -9 -15 27 -81
79 -124 97 -18 8 -67 16 -108 19 l-75 6 90 -15z"/>
<path d="M4012 938 c-1 -26 -10 -63 -19 -82 -15 -32 -18 -34 -30 -18 -13 15
-13 15 -3 -5 6 -13 14 -23 19 -23 16 0 42 89 38 132 l-4 43 -1 -47z"/>
<path d="M43 923 c-43 -15 -43 -15 -43 -65 l0 -51 50 63 c28 34 50 64 50 66 0
6 -12 3 -57 -13z"/>
<path d="M962 890 c0 -14 2 -19 5 -12 2 6 2 18 0 25 -3 6 -5 1 -5 -13z"/>
<path d="M937 769 c-9 -52 -17 -106 -16 -120 0 -13 9 25 20 86 11 60 18 114
16 119 -2 5 -11 -33 -20 -85z"/>
<path d="M672 567 c-84 -128 -199 -299 -257 -382 -105 -151 -136 -198 -117
-180 18 17 157 220 343 497 98 147 180 261 183 255 2 -7 5 0 5 16 1 15 0 27
-1 26 -2 0 -72 -105 -156 -232z"/>
<path d="M5480 751 c0 -6 5 -13 10 -16 6 -3 10 1 10 9 0 9 -4 16 -10 16 -5 0
-10 -4 -10 -9z"/>
<path d="M822 690 c0 -14 2 -19 5 -12 2 6 2 18 0 25 -3 6 -5 1 -5 -13z"/>
<path d="M832 645 c0 -11 4 -31 8 -45 6 -20 8 -21 8 -5 0 11 -4 31 -8 45 -6
20 -8 21 -8 5z"/>
<path d="M913 540 c0 -41 2 -58 4 -37 2 20 2 54 0 75 -2 20 -4 3 -4 -38z"/>
<path d="M852 555 c0 -11 4 -31 8 -45 6 -20 8 -21 8 -5 0 11 -4 31 -8 45 -6
20 -8 21 -8 5z"/>
<path d="M131 432 c-27 -40 -28 -42 -5 -17 l27 29 -6 -69 c-4 -39 -4 -65 -2
-60 5 11 24 159 21 162 -2 2 -17 -19 -35 -45z"/>
<path d="M871 470 c0 -8 4 -22 9 -30 12 -18 12 -2 0 25 -6 13 -9 15 -9 5z"/>
<path d="M911 444 c0 -11 3 -14 6 -6 3 7 2 16 -1 19 -3 4 -6 -2 -5 -13z"/>
<path d="M4962 420 c0 -19 2 -27 5 -17 2 9 2 25 0 35 -3 9 -5 1 -5 -18z"/>
<path d="M74 358 l-19 -23 23 19 c21 18 27 26 19 26 -2 0 -12 -10 -23 -22z"/>
<path d="M4972 360 c0 -14 2 -19 5 -12 2 6 2 18 0 25 -3 6 -5 1 -5 -13z"/>
<path d="M24 293 c-15 -20 -23 -33 -16 -29 13 8 56 66 49 66 -3 0 -17 -17 -33
-37z"/>
<path d="M4982 315 c0 -21 25 -107 27 -90 0 6 -6 33 -13 60 -8 28 -14 41 -14
30z"/>
<path d="M132 275 c0 -16 2 -22 5 -12 2 9 2 23 0 30 -3 6 -5 -1 -5 -18z"/>
<path d="M1640 183 c0 -59 -3 -125 -6 -145 l-7 -38 48 0 c44 0 47 1 41 22 -31
109 -56 214 -56 234 0 12 -4 26 -10 29 -6 4 -10 -32 -10 -102z"/>
<path d="M122 210 c0 -19 2 -27 5 -17 2 9 2 25 0 35 -3 9 -5 1 -5 -18z"/>
<path d="M113 90 c0 -41 2 -58 4 -38 2 21 2 55 0 76 -2 20 -4 3 -4 -38z"/>
<path d="M5030 145 c0 -5 5 -17 10 -25 5 -8 10 -10 10 -5 0 6 -5 17 -10 25 -5
8 -10 11 -10 5z"/>
<path d="M5051 95 c0 -5 6 -21 14 -35 8 -14 14 -20 14 -15 0 6 -6 21 -14 35
-8 14 -14 21 -14 15z"/>
<path d="M800 46 l-31 -46 29 0 c28 0 30 3 34 43 3 23 4 43 2 45 -1 2 -16 -17
-34 -42z"/>
<path d="M5080 21 c0 -6 4 -13 10 -16 6 -3 7 1 4 9 -7 18 -14 21 -14 7z"/>
</g>
</svg>
